<svg width="25" height="19" viewBox="0 0 25 19" fill="none" xmlns="http://www.w3.org/2000/svg">
<path fill-rule="evenodd" clip-rule="evenodd" d="M0.5 2.64286C0.5 1.69609 1.26751 0.928574 2.21429 0.928574H22.7857C23.7325 0.928574 24.5 1.69609 24.5 2.64286V16.3571C24.5 17.3039 23.7325 18.0714 22.7857 18.0714H2.21429C1.26751 18.0714 0.5 17.3039 0.5 16.3571V2.64286ZM22.7857 2.64286H2.21429V16.3571H22.7857V2.64286Z" fill="white"/>
<path fill-rule="evenodd" clip-rule="evenodd" d="M15.9286 13.7857C15.9286 13.3123 16.3123 12.9286 16.7857 12.9286H20.2143C20.6877 12.9286 21.0714 13.3123 21.0714 13.7857C21.0714 14.2591 20.6877 14.6429 20.2143 14.6429H16.7857C16.3123 14.6429 15.9286 14.2591 15.9286 13.7857Z" fill="white"/>
<path fill-rule="evenodd" clip-rule="evenodd" d="M10.7857 13.7857C10.7857 13.3123 11.1695 12.9286 11.6429 12.9286H13.3571C13.8305 12.9286 14.2143 13.3123 14.2143 13.7857C14.2143 14.2591 13.8305 14.6429 13.3571 14.6429H11.6429C11.1695 14.6429 10.7857 14.2591 10.7857 13.7857Z" fill="white"/>
<path fill-rule="evenodd" clip-rule="evenodd" d="M0.5 6.16853C0.5 5.69514 0.883756 5.31139 1.35714 5.31139H23.6429C24.1162 5.31139 24.5 5.69514 24.5 6.16853C24.5 6.64192 24.1162 7.02567 23.6429 7.02567H1.35714C0.883756 7.02567 0.5 6.64192 0.5 6.16853Z" fill="white"/>
</svg>
